{
  "accessors": [
    {
      "bufferView": 0,
      "byteOffset": 0,
      "componentType": 5123,
      "count": 364293,
      "max": [
        65533.0
      ],
      "min": [
        0.0
      ],
      "name": "buffer-0-group-0-mesh-0-indices",
      "type": "SCALAR"
    },
    {
      "bufferView": 1,
      "byteOffset": 0,
      "componentType": 5126,
      "count": 65534,
      "max": [
        2.056999921798706,
        5.5696001052856445,
        4.019199848175049
      ],
      "min": [
        -4.42080020904541,
        0.2948000133037567,
        -1.2436000108718872
      ],
      "name": "buffer-0-group-0-mesh-0-position",
      "type": "VEC3"
    },
    {
      "bufferView": 1,
      "byteOffset": 786408,
      "componentType": 5126,
      "count": 65534,
      "max": [
        1.0,
        1.0,
        1.0
      ],
      "min": [
        -1.0,
        -1.0,
        -1.0
      ],
      "name": "buffer-0-group-0-mesh-0-normal",
      "type": "VEC3"
    },
    {
      "bufferView": 2,
      "byteOffset": 0,
      "componentType": 5126,
      "count": 65534,
      "max": [
        89.50299835205078,
        19.14240074157715
      ],
      "min": [
        -13.5516996383667,
        -39.67940139770508
      ],
      "name": "buffer-0-group-0-mesh-0-texcoord",
      "type": "VEC2"
    },
    {
      "bufferView": 0,
      "byteOffset": 728586,
      "componentType": 5123,
      "count": 354618,
      "max": [
        65535.0
      ],
      "min": [
        0.0
      ],
      "name": "buffer-0-group-0-mesh-1-indices",
      "type": "SCALAR"
    },
    {
      "bufferView": 1,
      "byteOffset": 1572816,
      "componentType": 5126,
      "count": 65536,
      "max": [
        2.1159000396728516,
        5.849800109863281,
        4.334700107574463
      ],
      "min": [
        -1.117400050163269,
        0.4058000147342682,
        -3.7625999450683594
      ],
      "name": "buffer-0-group-0-mesh-1-position",
      "type": "VEC3"
    },
    {
      "bufferView": 1,
      "byteOffset": 2359248,
      "componentType": 5126,
      "count": 65536,
      "max": [
        1.0,
        1.0,
        1.0
      ],
      "min": [
        -1.0,
        -1.0,
        -1.0
      ],
      "name": "buffer-0-group-0-mesh-1-normal",
      "type": "VEC3"
    },
    {
      "bufferView": 2,
      "byteOffset": 524272,
      "componentType": 5126,
      "count": 65536,
      "max": [
        89.50019836425781,
        9.487700462341309
      ],
      "min": [
        -8.378999710083008,
        -41.274898529052734
      ],
      "name": "buffer-0-group-0-mesh-1-texcoord",
      "type": "VEC2"
    },
    {
      "bufferView": 0,
      "byteOffset": 1437822,
      "componentType": 5123,
      "count": 385341,
      "max": [
        65535.0
      ],
      "min": [
        0.0
      ],
      "name": "buffer-0-group-0-mesh-2-indices",
      "type": "SCALAR"
    },
    {
      "bufferView": 1,
      "byteOffset": 3145680,
      "componentType": 5126,
      "count": 65536,
      "max": [
        2.332200050354004,
        4.28879976272583,
        -2.141200065612793
      ],
      "min": [
        0.09200000017881393,
        0.3095000088214874,
        -3.845599889755249
      ],
      "name": "buffer-0-group-0-mesh-2-position",
      "type": "VEC3"
    },
    {
      "bufferView": 1,
      "byteOffset": 3932112,
      "componentType": 5126,
      "count": 65536,
      "max": [
        1.0,
        1.0,
        1.0
      ],
      "min": [
        -1.0,
        -1.0,
        -1.0
      ],
      "name": "buffer-0-group-0-mesh-2-normal",
      "type": "VEC3"
    },
    {
      "bufferView": 2,
      "byteOffset": 1048560,
      "componentType": 5126,
      "count": 65536,
      "max": [
        22.716100692749023,
        3.4319000244140625
      ],
      "min": [
        -22.72089958190918,
        -32.30870056152344
      ],
      "name": "buffer-0-group-0-mesh-2-texcoord",
      "type": "VEC2"
    },
    {
      "bufferView": 0,
      "byteOffset": 2208504,
      "componentType": 5123,
      "count": 40083,
      "max": [
        7257.0
      ],
      "min": [
        0.0
      ],
      "name": "buffer-0-group-0-mesh-3-indices",
      "type": "SCALAR"
    },
    {
      "bufferView": 1,
      "byteOffset": 4718544,
      "componentType": 5126,
      "count": 7258,
      "max": [
        2.2095000743865967,
        4.269599914550781,
        -2.2527999877929688
      ],
      "min": [
        0.7242000102996826,
        2.6638998985290527,
        -3.7723000049591064
      ],
      "name": "buffer-0-group-0-mesh-3-position",
      "type": "VEC3"
    },
    {
      "bufferView": 1,
      "byteOffset": 4805640,
      "componentType": 5126,
      "count": 7258,
      "max": [
        0.9999889731407166,
        0.9999999403953552,
        0.9999889731407166
      ],
      "min": [
        -0.9999889731407166,
        -1.0,
        -0.9999889731407166
      ],
      "name": "buffer-0-group-0-mesh-3-normal",
      "type": "VEC3"
    },
    {
      "bufferView": 2,
      "byteOffset": 1572848,
      "componentType": 5126,
      "count": 7258,
      "max": [
        12.168000221252441,
        -0.0
      ],
      "min": [
        -3.3062000274658203,
        -30.3523006439209
      ],
      "name": "buffer-0-group-0-mesh-3-texcoord",
      "type": "VEC2"
    },
    {
      "bufferView": 0,
      "byteOffset": 2288670,
      "componentType": 5123,
      "count": 342906,
      "max": [
        65533.0
      ],
      "min": [
        0.0
      ],
      "name": "buffer-0-group-1-mesh-0-indices",
      "type": "SCALAR"
    },
    {
      "bufferView": 1,
      "byteOffset": 4892736,
      "componentType": 5126,
      "count": 65534,
      "max": [
        1.9555000066757202,
        5.08489990234375,
        3.9154999256134033
      ],
      "min": [
        -4.331999778747559,
        0.33320000767707825,
        -1.243399977684021
      ],
      "name": "buffer-0-group-1-mesh-0-position",
      "type": "VEC3"
    },
    {
      "bufferView": 1,
      "byteOffset": 5679144,
      "componentType": 5126,
      "count": 65534,
      "max": [
        1.0,
        1.0,
        1.0
      ],
      "min": [
        -1.0,
        -1.0,
        -1.0
      ],
      "name": "buffer-0-group-1-mesh-0-normal",
      "type": "VEC3"
    },
    {
      "bufferView": 0,
      "byteOffset": 2974482,
      "componentType": 5123,
      "count": 231579,
      "max": [
        39612.0
      ],
      "min": [
        0.0
      ],
      "name": "buffer-0-group-1-mesh-1-indices",
      "type": "SCALAR"
    },
    {
      "bufferView": 1,
      "byteOffset": 6465552,
      "componentType": 5126,
      "count": 39613,
      "max": [
        2.209199905395508,
        5.892600059509277,
        4.333600044250488
      ],
      "min": [
        -1.1028000116348267,
        0.33320000767707825,
        -3.098900079727173
      ],
      "name": "buffer-0-group-1-mesh-1-position",
      "type": "VEC3"
    },
    {
      "bufferView": 1,
      "byteOffset": 6940908,
      "componentType": 5126,
      "count": 39613,
      "max": [
        1.0,
        1.0,
        1.0
      ],
      "min": [
        -1.0,
        -1.0,
        -1.0
      ],
      "name": "buffer-0-group-1-mesh-1-normal",
      "type": "VEC3"
    },
    {
      "bufferView": 0,
      "byteOffset": 3437640,
      "componentType": 5123,
      "count": 217074,
      "max": [
        37622.0
      ],
      "min": [
        0.0
      ],
      "name": "buffer-0-group-2-mesh-0-indices",
      "type": "SCALAR"
    },
    {
      "bufferView": 1,
      "byteOffset": 7416264,
      "componentType": 5126,
      "count": 37623,
      "max": [
        1.3499000072479248,
        2.8452000617980957,
        1.67739999294281
      ],
      "min": [
        -4.1529998779296875,
        0.31139999628067017,
        -1.222499966621399
      ],
      "name": "buffer-0-group-2-mesh-0-position",
      "type": "VEC3"
    },
    {
      "bufferView": 1,
      "byteOffset": 7867740,
      "componentType": 5126,
      "count": 37623,
      "max": [
        1.0,
        1.0,
        1.0
      ],
      "min": [
        -1.0,
        -1.0,
        -1.0
      ],
      "name": "buffer-0-group-2-mesh-0-normal",
      "type": "VEC3"
    },
    {
      "bufferView": 2,
      "byteOffset": 1630912,
      "componentType": 5126,
      "count": 37623,
      "max": [
        85.3949966430664,
        38.22949981689453
      ],
      "min": [
        -37.536598205566406,
        -39.41619873046875
      ],
      "name": "buffer-0-group-2-mesh-0-texcoord",
      "type": "VEC2"
    },
    {
      "bufferView": 0,
      "byteOffset": 3871788,
      "componentType": 5123,
      "count": 33084,
      "max": [
        5675.0
      ],
      "min": [
        0.0
      ],
      "name": "buffer-0-group-3-mesh-0-indices",
      "type": "SCALAR"
    },
    {
      "bufferView": 1,
      "byteOffset": 8319216,
      "componentType": 5126,
      "count": 5676,
      "max": [
        2.337399959564209,
        3.905400037765503,
        -2.1298999786376953
      ],
      "min": [
        0.08460000157356262,
        0.3075000047683716,
        -3.7672998905181885
      ],
      "name": "buffer-0-group-3-mesh-0-position",
      "type": "VEC3"
    },
    {
      "bufferView": 1,
      "byteOffset": 8387328,
      "componentType": 5126,
      "count": 5676,
      "max": [
        1.0,
        1.0,
        1.0
      ],
      "min": [
        -1.0,
        -1.0,
        -1.0
      ],
      "name": "buffer-0-group-3-mesh-0-normal",
      "type": "VEC3"
    },
    {
      "bufferView": 0,
      "byteOffset": 3937956,
      "componentType": 5123,
      "count": 310602,
      "max": [
        56466.0
      ],
      "min": [
        0.0
      ],
      "name": "buffer-0-group-4-mesh-0-indices",
      "type": "SCALAR"
    },
    {
      "bufferView": 1,
      "byteOffset": 8455440,
      "componentType": 5126,
      "count": 56467,
      "max": [
        2.273400068283081,
        3.3433001041412354,
        1.656599998474121
      ],
      "min": [
        -4.377099990844727,
        0.6561999917030334,
        -3.7014999389648438
      ],
      "name": "buffer-0-group-4-mesh-0-position",
      "type": "VEC3"
    },
    {
      "bufferView": 1,
      "byteOffset": 9133044,
      "componentType": 5126,
      "count": 56467,
      "max": [
        1.0,
        1.0,
        1.0
      ],
      "min": [
        -1.0,
        -1.0,
        -1.0
      ],
      "name": "buffer-0-group-4-mesh-0-normal",
      "type": "VEC3"
    },
    {
      "bufferView": 2,
      "byteOffset": 1931896,
      "componentType": 5126,
      "count": 56467,
      "max": [
        88.88839721679688,
        18.457300186157227
      ],
      "min": [
        -25.590499877929688,
        -38.957000732421875
      ],
      "name": "buffer-0-group-4-mesh-0-texcoord",
      "type": "VEC2"
    },
    {
      "bufferView": 0,
      "byteOffset": 4559160,
      "componentType": 5123,
      "count": 351651,
      "max": [
        65533.0
      ],
      "min": [
        0.0
      ],
      "name": "buffer-0-group-5-mesh-0-indices",
      "type": "SCALAR"
    },
    {
      "bufferView": 1,
      "byteOffset": 9810648,
      "componentType": 5126,
      "count": 65534,
      "max": [
        0.29980000853538513,
        3.387500047683716,
        2.6944000720977783
      ],
      "min": [
        -0.9678000211715698,
        0.32089999318122864,
        0.8285999894142151
      ],
      "name": "buffer-0-group-5-mesh-0-position",
      "type": "VEC3"
    },
    {
      "bufferView": 1,
      "byteOffset": 10597056,
      "componentType": 5126,
      "count": 65534,
      "max": [
        1.0,
        1.0,
        1.0
      ],
      "min": [
        -1.0,
        -1.0,
        -1.0
      ],
      "name": "buffer-0-group-5-mesh-0-normal",
      "type": "VEC3"
    },
    {
      "bufferView": 2,
      "byteOffset": 2383632,
      "componentType": 5126,
      "count": 65534,
      "max": [
        7.921599864959717,
        11.317299842834473
      ],
      "min": [
        -7.921599864959717,
        -11.317299842834473
      ],
      "name": "buffer-0-group-5-mesh-0-texcoord",
      "type": "VEC2"
    },
    {
      "bufferView": 0,
      "byteOffset": 5262462,
      "componentType": 5123,
      "count": 69273,
      "max": [
        12681.0
      ],
      "min": [
        0.0
      ],
      "name": "buffer-0-group-5-mesh-1-indices",
      "type": "SCALAR"
    },
    {
      "bufferView": 1,
      "byteOffset": 11383464,
      "componentType": 5126,
      "count": 12682,
      "max": [
        0.2851000130176544,
        3.207900047302246,
        2.6944000720977783
      ],
      "min": [
        -0.9531000256538391,
        0.296999990940094,
        0.9304999709129333
      ],
      "name": "buffer-0-group-5-mesh-1-position",
      "type": "VEC3"
    },
    {
      "bufferView": 1,
      "byteOffset": 11535648,
      "componentType": 5126,
      "count": 12682,
      "max": [
        1.0,
        1.0,
        1.0
      ],
      "min": [
        -1.0,
        -1.0,
        -1.0
      ],
      "name": "buffer-0-group-5-mesh-1-normal",
      "type": "VEC3"
    },
    {
      "bufferView": 2,
      "byteOffset": 2907904,
      "componentType": 5126,
      "count": 12682,
      "max": [
        1.083299994468689,
        -0.0
      ],
      "min": [
        0.0,
        -1.0
      ],
      "name": "buffer-0-group-5-mesh-1-texcoord",
      "type": "VEC2"
    },
    {
      "bufferView": 0,
      "byteOffset": 5401008,
      "componentType": 5123,
      "count": 83595,
      "max": [
        15342.0
      ],
      "min": [
        0.0
      ],
      "name": "buffer-0-group-6-mesh-0-indices",
      "type": "SCALAR"
    },
    {
      "bufferView": 1,
      "byteOffset": 11687832,
      "componentType": 5126,
      "count": 15343,
      "max": [
        2.019200086593628,
        5.892600059509277,
        2.250499963760376
      ],
      "min": [
        -0.7472000122070312,
        3.138200044631958,
        -1.8307000398635864
      ],
      "name": "buffer-0-group-6-mesh-0-position",
      "type": "VEC3"
    },
    {
      "bufferView": 1,
      "byteOffset": 11871948,
      "componentType": 5126,
      "count": 15343,
      "max": [
        1.0,
        1.0,
        1.0
      ],
      "min": [
        -1.0,
        -1.0,
        -0.9998828768730164
      ],
      "name": "buffer-0-group-6-mesh-0-normal",
      "type": "VEC3"
    }
  ],
  "asset": {
    "generator": "Obj2GltfConverter",
    "version": "2.0"
  },
  "bufferViews": [
    {
      "buffer": 0,
      "byteLength": 5568198,
      "byteOffset": 0,
      "name": "buffer-0-bufferview-ushort",
      "target": 34963
    },
    {
      "buffer": 0,
      "byteLength": 12056064,
      "byteOffset": 5568204,
      "byteStride": 12,
      "name": "buffer-0-bufferview-vec3",
      "target": 34962
    },
    {
      "buffer": 0,
      "byteLength": 3009360,
      "byteOffset": 17624272,
      "byteStride": 8,
      "name": "buffer-0-bufferview-vec2",
      "target": 34962
    }
  ],
  "buffers": [
    {
      "byteLength": 20633632,
      "name": "buffer-0",
      "uri": "Hospital.bin"
    }
  ],
  "materials": [
    {
      "alphaMode": "OPAQUE",
      "doubleSided": true,
      "name": "02___Default",
      "pbrMetallicRoughness": {
        "baseColorFactor": [
          0.9412,
          0.9412,
          0.9412,
          1.0
        ],
        "metallicFactor": 0.0,
        "roughnessFactor": 0.9699476628648295
      }
    },
    {
      "alphaMode": "OPAQUE",
      "doubleSided": true,
      "name": "03___Default",
      "pbrMetallicRoughness": {
        "baseColorFactor": [
          0.0392,
          0.0392,
          0.0392,
          1.0
        ],
        "metallicFactor": 0.0,
        "roughnessFactor": 0.9699476628648295
      }
    },
    {
      "alphaMode": "OPAQUE",
      "doubleSided": true,
      "name": "01___Default",
      "pbrMetallicRoughness": {
        "baseColorFactor": [
          0.0706,
          0.1961,
          0.0706,
          1.0
        ],
        "metallicFactor": 0.0,
        "roughnessFactor": 0.9699476628648295
      }
    },
    {
      "alphaMode": "OPAQUE",
      "doubleSided": true,
      "name": "04___Default",
      "pbrMetallicRoughness": {
        "baseColorFactor": [
          0.5882,
          0.5882,
          0.5882,
          1.0
        ],
        "metallicFactor": 0.0,
        "roughnessFactor": 0.9699476628648295
      }
    }
  ],
  "meshes": [
    {
      "name": "buffer-0-mesh-0",
      "primitives": [
        {
          "attributes": {
            "POSITION": 1,
            "NORMAL": 2,
            "TEXCOORD_0": 3
          },
          "indices": 0,
          "material": 0,
          "mode": 4
        },
        {
          "attributes": {
            "POSITION": 5,
            "NORMAL": 6,
            "TEXCOORD_0": 7
          },
          "indices": 4,
          "material": 0,
          "mode": 4
        },
        {
          "attributes": {
            "POSITION": 9,
            "NORMAL": 10,
            "TEXCOORD_0": 11
          },
          "indices": 8,
          "material": 0,
          "mode": 4
        },
        {
          "attributes": {
            "POSITION": 13,
            "NORMAL": 14,
            "TEXCOORD_0": 15
          },
          "indices": 12,
          "material": 0,
          "mode": 4
        },
        {
          "attributes": {
            "POSITION": 17,
            "NORMAL": 18
          },
          "indices": 16,
          "material": 0,
          "mode": 4
        },
        {
          "attributes": {
            "POSITION": 20,
            "NORMAL": 21
          },
          "indices": 19,
          "material": 0,
          "mode": 4
        },
        {
          "attributes": {
            "POSITION": 23,
            "NORMAL": 24,
            "TEXCOORD_0": 25
          },
          "indices": 22,
          "material": 1,
          "mode": 4
        },
        {
          "attributes": {
            "POSITION": 27,
            "NORMAL": 28
          },
          "indices": 26,
          "material": 1,
          "mode": 4
        },
        {
          "attributes": {
            "POSITION": 30,
            "NORMAL": 31,
            "TEXCOORD_0": 32
          },
          "indices": 29,
          "material": 2,
          "mode": 4
        },
        {
          "attributes": {
            "POSITION": 34,
            "NORMAL": 35,
            "TEXCOORD_0": 36
          },
          "indices": 33,
          "material": 3,
          "mode": 4
        },
        {
          "attributes": {
            "POSITION": 38,
            "NORMAL": 39,
            "TEXCOORD_0": 40
          },
          "indices": 37,
          "material": 3,
          "mode": 4
        },
        {
          "attributes": {
            "POSITION": 42,
            "NORMAL": 43
          },
          "indices": 41,
          "material": 3,
          "mode": 4
        }
      ]
    }
  ],
  "nodes": [
    {
      "mesh": 0,
      "name": "node-0"
    }
  ],
  "scenes": [
    {
      "name": "scene-0",
      "nodes": [
        0
      ]
    }
  ]
}