{
	"accessors" : 
	[
		{
			"bufferView" : 2,
			"byteOffset" : 0,
			"componentType" : 5126,
			"count" : 4,
			"max" : 
			[
				0.6800203323364258,
				0.6800203323364258,
				0.6800203323364258,
				0.2509804
			],
			"min" : 
			[
				0.6800203323364258,
				0.6800203323364258,
				0.6800203323364258,
				0.2509804
			],
			"name" : "accessor_color_m0-PolyGlass24_-758438",
			"type" : "VEC4"
		},
		{
			"bufferView" : 2,
			"byteOffset" : 64,
			"componentType" : 5126,
			"count" : 8214,
			"max" : 
			[
				1,
				1,
				1,
				1
			],
			"min" : 
			[
				0,
				0.006584956776350737,
				0.006584956776350737,
				1
			],
			"name" : "accessor_color_m1-PolyPaper17_-758816",
			"type" : "VEC4"
		},
		{
			"bufferView" : 2,
			"byteOffset" : 131488,
			"componentType" : 5126,
			"count" : 8,
			"max" : 
			[
				1,
				1,
				1,
				1
			],
			"min" : 
			[
				1,
				1,
				1,
				1
			],
			"name" : "accessor_color_m2-PolyGem25_-758440",
			"type" : "VEC4"
		},
		{
			"bufferView" : 0,
			"byteOffset" : 0,
			"componentType" : 5123,
			"count" : 6,
			"max" : 
			[
				3
			],
			"min" : 
			[
				0
			],
			"name" : "accessor_indices_0_m0-PolyGlass24_-758438",
			"type" : "SCALAR"
		},
		{
			"bufferView" : 0,
			"byteOffset" : 12,
			"componentType" : 5123,
			"count" : 13710,
			"max" : 
			[
				8213
			],
			"min" : 
			[
				0
			],
			"name" : "accessor_indices_0_m1-PolyPaper17_-758816",
			"type" : "SCALAR"
		},
		{
			"bufferView" : 0,
			"byteOffset" : 27432,
			"componentType" : 5123,
			"count" : 12,
			"max" : 
			[
				7
			],
			"min" : 
			[
				0
			],
			"name" : "accessor_indices_0_m2-PolyGem25_-758440",
			"type" : "SCALAR"
		},
		{
			"bufferView" : 1,
			"byteOffset" : 48,
			"componentType" : 5126,
			"count" : 4,
			"max" : 
			[
				-0.4784257,
				0.3266072,
				-0.8151297
			],
			"min" : 
			[
				-0.4784259,
				0.3266069,
				-0.8151299
			],
			"name" : "accessor_normal_m0-PolyGlass24_-758438",
			"type" : "VEC3"
		},
		{
			"bufferView" : 1,
			"byteOffset" : 98664,
			"componentType" : 5126,
			"count" : 8214,
			"max" : 
			[
				0.9869339,
				0.9783077999999999,
				0.9832476
			],
			"min" : 
			[
				-0.9869339,
				-0.9964386,
				-0.9995844
			],
			"name" : "accessor_normal_m1-PolyPaper17_-758816",
			"type" : "VEC3"
		},
		{
			"bufferView" : 1,
			"byteOffset" : 197328,
			"componentType" : 5126,
			"count" : 8,
			"max" : 
			[
				-0.4675291,
				0.3273502,
				-0.7623342
			],
			"min" : 
			[
				-0.5582905,
				0.28919,
				-0.8316129
			],
			"name" : "accessor_normal_m2-PolyGem25_-758440",
			"type" : "VEC3"
		},
		{
			"bufferView" : 1,
			"byteOffset" : 0,
			"componentType" : 5126,
			"count" : 4,
			"max" : 
			[
				0.4003341,
				2.143008,
				3.360018
			],
			"min" : 
			[
				-3.162621,
				0.1499741,
				0.8794931
			],
			"name" : "accessor_position_m0-PolyGlass24_-758438",
			"type" : "VEC3"
		},
		{
			"bufferView" : 1,
			"byteOffset" : 96,
			"componentType" : 5126,
			"count" : 8214,
			"max" : 
			[
				1.974549,
				2.491216,
				4.551487
			],
			"min" : 
			[
				-4.593143,
				-0.327614,
				0.005399029
			],
			"name" : "accessor_position_m1-PolyPaper17_-758816",
			"type" : "VEC3"
		},
		{
			"bufferView" : 1,
			"byteOffset" : 197232,
			"componentType" : 5126,
			"count" : 8,
			"max" : 
			[
				-2.584307,
				1.686623,
				3.114136
			],
			"min" : 
			[
				-2.689009,
				1.506389,
				3.037093
			],
			"name" : "accessor_position_m2-PolyGem25_-758440",
			"type" : "VEC3"
		}
	],
	"asset" : 
	{
		"copyright" : "Unknown",
		"generator" : "glTF 1-to-2 Upgrader for Google Blocks",
		"version" : "2.0"
	},
	"bufferViews" : 
	[
		{
			"buffer" : 0,
			"byteLength" : 27456,
			"byteOffset" : 0,
			"name" : "ushortBufferView",
			"target" : 34963
		},
		{
			"buffer" : 0,
			"byteLength" : 197424,
			"byteOffset" : 27456,
			"byteStride" : 12,
			"name" : "vec3BufferView",
			"target" : 34962
		},
		{
			"buffer" : 0,
			"byteLength" : 131616,
			"byteOffset" : 224880,
			"byteStride" : 16,
			"name" : "vec4BufferView",
			"target" : 34962
		}
	],
	"buffers" : 
	[
		{
			"byteLength" : 356496,
			"name" : "model",
			"uri" : "model.bin"
		}
	],
	"materials" : 
	[
		{
			"alphaMode" : "OPAQUE",
			"doubleSided" : false,
			"name" : "BlocksPaper",
			"pbrMetallicRoughness" : 
			{
				"baseColorFactor" : 
				[
					1,
					1,
					1,
					1
				],
				"metallicFactor" : 0,
				"roughnessFactor" : 0.6
			}
		},
		{
			"alphaMode" : "BLEND",
			"doubleSided" : false,
			"name" : "BlocksGlass",
			"pbrMetallicRoughness" : 
			{
				"baseColorFactor" : 
				[
					0.2,
					0.2,
					1,
					0.3
				],
				"metallicFactor" : 1,
				"roughnessFactor" : 0.4
			}
		},
		{
			"alphaMode" : "OPAQUE",
			"doubleSided" : true,
			"name" : "BlocksGem",
			"pbrMetallicRoughness" : 
			{
				"baseColorFactor" : 
				[
					1,
					0.4,
					1,
					1
				],
				"metallicFactor" : 0,
				"roughnessFactor" : 0.1
			}
		}
	],
	"meshes" : 
	[
		{
			"name" : "mesh_m0-PolyGlass24_-758438",
			"primitives" : 
			[
				{
					"attributes" : 
					{
						"COLOR_0" : 0,
						"NORMAL" : 6,
						"POSITION" : 9
					},
					"indices" : 3,
					"material" : 1,
					"mode" : 4
				}
			]
		},
		{
			"name" : "mesh_m1-PolyPaper17_-758816",
			"primitives" : 
			[
				{
					"attributes" : 
					{
						"COLOR_0" : 1,
						"NORMAL" : 7,
						"POSITION" : 10
					},
					"indices" : 4,
					"material" : 0,
					"mode" : 4
				}
			]
		},
		{
			"name" : "mesh_m2-PolyGem25_-758440",
			"primitives" : 
			[
				{
					"attributes" : 
					{
						"COLOR_0" : 2,
						"NORMAL" : 8,
						"POSITION" : 11
					},
					"indices" : 5,
					"material" : 2,
					"mode" : 4
				}
			]
		}
	],
	"nodes" : 
	[
		{
			"matrix" : 
			[
				1,
				0,
				0,
				0,
				0,
				1,
				0,
				0,
				0,
				0,
				1,
				0,
				0,
				0,
				0,
				1
			],
			"mesh" : 0,
			"name" : "node_MeshObject-1458912640-PolyGlass24"
		},
		{
			"matrix" : 
			[
				1,
				0,
				0,
				0,
				0,
				1,
				0,
				0,
				0,
				0,
				1,
				0,
				0,
				0,
				0,
				1
			],
			"mesh" : 1,
			"name" : "node_MeshObject-1977632704-PolyPaper17"
		},
		{
			"matrix" : 
			[
				1,
				0,
				0,
				0,
				0,
				1,
				0,
				0,
				0,
				0,
				1,
				0,
				0,
				0,
				0,
				1
			],
			"mesh" : 2,
			"name" : "node_MeshObject-940192576-PolyGem25"
		}
	],
	"scene" : 0,
	"scenes" : 
	[
		{
			"extras" : {},
			"name" : "defaultScene",
			"nodes" : 
			[
				0,
				1,
				2
			]
		}
	]
}